<svg width="53" height="54" viewBox="0 0 53 54" fill="none" xmlns="http://www.w3.org/2000/svg">
<circle cx="26.3364" cy="26.9966" r="26.3364" fill="#ADFF00"/>
</svg>

<svg width="33" height="30" viewBox="0 0 33 30" fill="none" xmlns="http://www.w3.org/2000/svg">
<path d="M25.1191 15.4557L26.6002 12.773V29.0916H25.1191V15.4557ZM27.9167 11.0328L29.5623 7.6295V29.0916H27.9167V11.0328ZM19.567 17.1234L18.7442 15.6053L27.9167 0.0117188H29.5623L19.567 17.1234ZM18.086 14.6582L17.3847 13.353L25.1191 0.0117188H26.6002L18.086 14.6582ZM6.52352 12.415L8.00458 15.1312V29.0916H6.52352V12.415ZM3.72595 7.6295L5.20701 10.2398V29.0916H3.72595V7.6295ZM14.4225 21.5056H12.7769L2.24167 2.41748V29.0916H0.806885V0.0117188H2.42101L14.4225 21.5056ZM17.3847 21.5056H15.739L3.72595 0.0117188H5.68913L17.3847 21.5056ZM30.8788 2.41748L20.6746 21.5056H18.5366L7.0172 0.0117188H8.91739L19.8962 19.5886L30.8788 0.0117188H32.2384V29.0916H30.8788V2.41748Z" fill="#0D0D0D"/>
</svg>
