<svg width="24" height="24" viewBox="0 0 24 24" fill="none" xmlns="http://www.w3.org/2000/svg">
<path d="M1.33337 3.99967C1.33337 2.52692 2.52728 1.33301 4.00004 1.33301H6.66671C8.13947 1.33301 9.33337 2.52692 9.33337 3.99967V6.66634C9.33337 8.1391 8.13947 9.33301 6.66671 9.33301H4.00004C2.52728 9.33301 1.33337 8.1391 1.33337 6.66634V3.99967Z" stroke="#ADFF00" stroke-width="2.66667" stroke-linecap="round" stroke-linejoin="round"/>
<path d="M14.6667 3.99967C14.6667 2.52692 15.8606 1.33301 17.3334 1.33301H20C21.4728 1.33301 22.6667 2.52692 22.6667 3.99967V6.66634C22.6667 8.1391 21.4728 9.33301 20 9.33301H17.3334C15.8606 9.33301 14.6667 8.1391 14.6667 6.66634V3.99967Z" stroke="#ADFF00" stroke-width="2.66667" stroke-linecap="round" stroke-linejoin="round"/>
<path d="M1.33337 17.333C1.33337 15.8602 2.52728 14.6663 4.00004 14.6663H6.66671C8.13947 14.6663 9.33337 15.8602 9.33337 17.333V19.9997C9.33337 21.4724 8.13947 22.6663 6.66671 22.6663H4.00004C2.52728 22.6663 1.33337 21.4724 1.33337 19.9997V17.333Z" stroke="#ADFF00" stroke-width="2.66667" stroke-linecap="round" stroke-linejoin="round"/>
<path d="M14.6667 17.333C14.6667 15.8602 15.8606 14.6663 17.3334 14.6663H20C21.4728 14.6663 22.6667 15.8602 22.6667 17.333V19.9997C22.6667 21.4724 21.4728 22.6663 20 22.6663H17.3334C15.8606 22.6663 14.6667 21.4724 14.6667 19.9997V17.333Z" stroke="#ADFF00" stroke-width="2.66667" stroke-linecap="round" stroke-linejoin="round"/>
</svg>
